# xmcd CD database file
#
# Track frame offsets:
#	150
#	9297
#	38971
#	51095
#	70306
#	84265
#	100339
#	112229
#	134911
#	147644
#	171579
#	183782
#	193541
#	201647
#	231793
#	249009
#	259731
#	271025
#	281698
#	291528
#	300205
#	312062
#	326056
#	339891
#	348073
#
# Disc length: 4764 seconds
#
# Revision: 1
# Processed by: cddbd v1.5.2PL0 Copyright (c) Steve Scherf et al.
# Submitted via: CDex 1.51
#
DISCID=76129a19
DTITLE=MARCUS BIANCARDINI - VIOLA DE GRAVATA
DYEAR=2014
DGENRE=SERTANEJO
TTITLE0=ANDALUZIA
TTITLE1=POUT-POURRI
TTITLE2=GUERREIRA
TTITLE3=POLCA CAIPIRA
TTITLE4=REGRESSO
TTITLE5=DA ESPANHA AO PARAGUAI
TTITLE6=TOADA CABOCLA
TTITLE7=VIOLA DE GRAVATA II
TTITLE8=TEMPESTADE E BONANÇA
TTITLE9=POUT-PORRI
TTITLE10=DIÁLOGO DAS CORDAS
TTITLE11=PALHOÇA
TTITLE12=VIOLA CAIPIRA OU HARPA PARAGUAIA
TTITLE13=VOLTA AO MUNDO
TTITLE14=SALAMANCA
TTITLE15=CANTOS DAS CORDAS
TTITLE16=THALÍZIA
TTITLE17=TAPERAS
TTITLE18=PAGODE CAIPIRA
TTITLE19=PARAGENS
TTITLE20=AGRESTE
TTITLE21=VIOLA DE GRAVATA
TTITLE22=GUARANIA DO SERRADO
TTITLE23=POLCA MEDIEVAL
TTITLE24=CHAPADÃO
EXTD=YEAR: 2014
EXTT0=
EXTT1=
EXTT2=
EXTT3=
EXTT4=
EXTT5=
EXTT6=
EXTT7=
EXTT8=
EXTT9=
EXTT10=
EXTT11=
EXTT12=
EXTT13=
EXTT14=
EXTT15=
EXTT16=
EXTT17=
EXTT18=
EXTT19=
EXTT20=
EXTT21=
EXTT22=
EXTT23=
EXTT24=
PLAYORDER=
